<?xml version="1.0" encoding="UTF-8"?>
<svg width="2000px" height="250px" viewBox="0 0 722 322" version="1.1" xmlns="http://www.w3.org/2000/svg" xmlns:xlink="http://www.w3.org/1999/xlink">
    <!-- Generator: Sketch 62 (91390) - https://sketch.com -->
    <title>Rectangle</title>
    <desc>Created with Sketch.</desc>
    <g id="Page-1" stroke="none" stroke-width="1" fill="none" fill-rule="evenodd">
        <g id="Desktop-Copy-2" transform="translate(-150.000000, -275.000000)" fill="#81A4CD">
            <path d="M159.998255,287.606355 C158.969761,280.25634 215.069482,276.581333 328.297419,276.581333 C407.076772,276.581333 515.753384,273.023334 649.54717,276.581333 C690.778673,277.677809 753.710559,281.421126 838.342828,287.811285 L838.342828,287.811286 C844.411599,288.269509 849.694911,292.131081 851.973976,297.774291 C859.090673,315.396002 863.766014,342.424407 866,378.859507 C867.525578,403.740859 871.532385,437.358316 871.315429,479.730582 C871.220542,498.262403 867.53847,529.851096 860.269212,574.496663 L860.269211,574.496663 C859.176649,581.206846 853.962913,586.493872 847.268633,587.679989 C822.915584,591.994951 764.786809,594.515285 672.882308,595.240989 C600.086477,595.815805 502.775283,596.865409 380.931956,595.240989 C339.07869,594.682999 271.178417,591.28572 177.231136,585.049151 L177.231136,585.049151 C171.241734,584.651552 165.978735,580.935052 163.60042,575.423732 C156.698435,559.42962 152.612465,533.205097 151.342508,496.750163 C150.400558,469.710878 149.437571,433.394522 151.342508,387.877915 C152.131973,369.014412 155.03629,336.916575 160.05546,291.584403 L160.055458,291.584403 C160.201966,290.261171 160.18275,288.924827 159.998255,287.606355 Z" id="Rectangle"></path>
        </g>
    </g>
</svg>