<?xml version="1.0" encoding="UTF-8"?>
<svg width="955px" height="237px" viewBox="0 0 955 237" version="1.1" xmlns="http://www.w3.org/2000/svg" xmlns:xlink="http://www.w3.org/1999/xlink">
    <!-- Generator: Sketch 62 (91390) - https://sketch.com -->
    <title>Rectangle</title>
    <desc>Created with Sketch.</desc>
    <g id="Page-1" stroke="none" stroke-width="1" fill="none" fill-rule="evenodd">
        <g id="Desktop-Copy-2" transform="translate(-26.000000, -275.000000)" fill="#81A4CD">
            <path d="M39.1327741,284.214347 C38.6133023,278.849537 112.839534,276.167132 261.811468,276.167132 C366.038065,276.167132 509.819311,273.541085 686.831061,276.167132 C742.248889,276.98928 827.297419,279.827626 941.976649,284.682169 L941.976649,284.682171 C946.776807,284.885369 951.231578,287.234851 954.110159,291.081483 C963.826988,304.066022 970.19104,324.257343 973.202314,351.655445 C975.220683,370.019589 980.521765,394.831581 980.234729,426.10522 C980.111981,439.47896 975.45195,462.06593 966.254635,493.86613 L966.254632,493.86613 C964.467936,500.043726 959.15632,504.551307 952.770359,505.309249 C923.515149,508.781517 845.159662,510.798376 717.703897,511.359828 C621.393614,511.784082 492.649034,512.558762 331.447971,511.359828 C275.275129,510.942043 183.638446,508.367664 56.5379199,503.636691 L56.5379198,503.636693 C51.9831524,503.467154 47.7168891,501.363097 44.8098425,497.85258 C35.1354915,486.169941 29.4311172,466.441361 27.6967196,438.666839 C26.4505016,418.709991 25.1764518,391.906028 27.6967196,358.311649 C28.7242802,344.614589 32.459928,321.463535 38.9036631,288.858487 L38.9036623,288.858487 C39.2057657,287.329855 39.2829511,285.765291 39.1327741,284.214347 Z" id="Rectangle"></path>
        </g>
    </g>
</svg>