<?xml version="1.0" encoding="UTF-8"?>
<svg width="1024px" height="351px" viewBox="0 0 1024 351" version="1.1" xmlns="http://www.w3.org/2000/svg" xmlns:xlink="http://www.w3.org/1999/xlink">
    <!-- Generator: Sketch 62 (91390) - https://sketch.com -->
    <title>Oval + Oval Mask</title>
    <desc>Created with Sketch.</desc>
    <defs>
        <path d="M566,309 C804.497777,467.461518 1132,239.827994 1132,154.5 C1132,69.1720062 878.593168,0 566,0 C253.406832,0 0,69.1720062 0,154.5 C0,239.827994 327.502223,150.538482 566,309 Z" id="path-1"></path>
    </defs>
    <g id="Page-1" stroke="none" stroke-width="1" fill="none" fill-rule="evenodd">
        <g id="Desktop">
            <g id="Oval-+-Oval-Mask" transform="translate(-41.000000, -13.000000)">
                <mask id="mask-2" fill="white">
                    <use xlink:href="#path-1"></use>
                </mask>
                <use id="Mask" fill="#628FFF" xlink:href="#path-1"></use>
                <path d="M559,275 C797.497777,433.461518 1125,205.827994 1125,120.5 C1125,35.1720062 871.593168,-34 559,-34 C246.406832,-34 -7,35.1720062 -7,120.5 C-7,205.827994 320.502223,116.538482 559,275 Z" id="Oval" fill="#749BFF" mask="url(#mask-2)"></path>
                <path d="M559,243 C797.497777,401.461518 1125,173.827994 1125,88.5 C1125,3.17200616 871.593168,-66 559,-66 C246.406832,-66 -7,3.17200616 -7,88.5 C-7,173.827994 320.502223,84.5384824 559,243 Z" id="Oval" fill="#7FA4FF" mask="url(#mask-2)"></path>
            </g>
        </g>
    </g>
</svg>