<?xml version="1.0" encoding="UTF-8"?>
<svg width="955px" height="378px" viewBox="0 0 955 378" version="1.1" xmlns="http://www.w3.org/2000/svg" xmlns:xlink="http://www.w3.org/1999/xlink">
    <!-- Generator: Sketch 62 (91390) - https://sketch.com -->
    <title>Rectangle</title>
    <desc>Created with Sketch.</desc>
    <g id="Page-1" stroke="none" stroke-width="1" fill="none" fill-rule="evenodd">
        <g id="Desktop-Copy-2" transform="translate(-26.000000, -275.000000)" fill="#81A4CD">
            <path d="M39.1500101,289.849642 C37.7317849,281.190882 111.952271,276.861502 261.811468,276.861502 C366.038065,276.861502 509.819311,272.673123 686.831061,276.861502 C741.953368,278.165783 826.391203,282.651568 940.144563,290.318855 L940.144563,290.318856 C945.856917,290.703884 950.928182,294.111824 953.442761,299.255376 C963.536116,319.901256 970.122633,352.569658 973.202314,397.260582 C975.220683,426.550231 980.521765,466.123787 980.234729,516.003263 C980.107609,538.09337 975.114188,575.943559 965.254465,629.553828 L965.254464,629.553828 C964.055971,636.070393 958.964879,641.174058 952.451289,642.388621 C922.948224,647.88994 844.699093,651.086722 717.703897,651.978967 C621.393614,652.655625 492.649034,653.89119 331.447971,651.978967 C275.557943,651.31598 184.560273,647.247911 58.4549616,639.77476 L58.4549615,639.774763 C52.922159,639.446883 47.9531298,636.27895 45.3209332,631.401353 C35.3361799,612.899088 29.461442,581.111387 27.6967196,536.03825 C26.4505016,504.208341 25.1764518,461.457716 27.6967196,407.876807 C28.7419198,385.655844 32.5889824,347.834223 39.2379073,294.411944 L39.2379051,294.411943 C39.4267299,292.894787 39.3971307,291.358399 39.1500101,289.849642 Z" id="Rectangle"></path>
        </g>
    </g>
</svg>