<?xml version="1.0" encoding="UTF-8"?>
<svg width="126px" height="127px" viewBox="0 0 126 127" version="1.1" xmlns="http://www.w3.org/2000/svg" xmlns:xlink="http://www.w3.org/1999/xlink">
    <!-- Generator: Sketch 62 (91390) - https://sketch.com -->
    <title>nutrition</title>
    <desc>Created with Sketch.</desc>
    <g id="Page-1" stroke="none" stroke-width="1" fill="none" fill-rule="evenodd">
        <g id="Desktop-Copy-3" transform="translate(-512.000000, -734.000000)">
            <g id="nutrition" transform="translate(512.000000, 734.000000)">
                <g id="blob-shape-(8)" fill="#9CE68F">
                    <path d="M126,66.8379716 C126,98.5683364 95.6565028,127 64.1761045,127 C32.6957063,127 0,98.5683364 0,66.8379716 C0,35.1076067 32.6957063,0 64.1761045,0 C95.6565028,0 126,35.1076067 126,66.8379716 Z" id="Path" fill-rule="nonzero"></path>
                </g>
                <g id="002-science" transform="translate(34.000000, 25.000000)" fill="#000000">
                    <path d="M55.8124872,54.6998492 L40.8461538,36.9144796 L40.8461538,27 L18.1538462,27 L18.1538462,36.9144796 L3.18857179,54.6986425 C1.13234615,57.1384615 0,60.2377074 0,63.4253394 C0,70.9104072 6.10786154,77 13.6153846,77 L45.3846154,77 C52.8921385,77 59,70.9104072 59,63.4253394 C59,60.2377074 57.8676538,57.1384615 55.8124872,54.6998492 Z M45.3846154,72.4751131 L13.6153846,72.4751131 C8.61036923,72.4751131 4.53846154,68.4153846 4.53846154,63.4253394 C4.53846154,61.300905 5.29305641,59.2352941 6.66442821,57.6081448 L22.6923077,38.5612368 L22.6923077,31.5248869 L36.3076923,31.5248869 L36.3076923,38.5612368 L52.3366308,57.6095023 C53.7069436,59.2352941 54.4615385,61.300905 54.4615385,63.4253394 C54.4615385,68.4153846 50.3896308,72.4751131 45.3846154,72.4751131 Z" id="Shape" fill-rule="nonzero"></path>
                    <path d="M29.5,22 C40.8037454,22 50,13.114485 50,2.19269103 L50,0 L47.7306273,0 C39.8006827,0 32.9079926,4.37266445 29.5,10.7538339 C26.0920074,4.37266445 19.1993173,0 11.2693727,0 L9,0 L9,2.19269103 C9,13.114485 18.1962546,22 29.5,22 Z M45.2722915,4.56810631 C44.2108303,11.1736611 38.795048,16.4065914 31.9583358,17.4320399 C33.019797,10.826485 38.4357306,5.59355482 45.2722915,4.56810631 Z M27.0416642,17.4318937 C20.2051033,16.4064452 14.7891697,11.173515 13.7277085,4.56796013 C20.5644207,5.59355482 25.980203,10.826485 27.0416642,17.4318937 Z" id="Shape" fill-rule="nonzero"></path>
                    <path d="M37.8841963,48 L21.1158037,48 L10.064937,60.7558824 C9.57901111,61.3158824 9,62.2619118 9,63.5882353 C9,66.0208824 11.0436222,68 13.5555556,68 L45.4444444,68 C47.9563778,68 50,66.0208824 50,63.5882353 C50,62.5380882 49.629937,61.5567647 48.9315704,60.7520588 L37.8841963,48 Z M13.5646667,63.5802941 L23.2402111,52.4117647 L35.7594852,52.4117647 L45.4409519,63.5882353 L13.5646667,63.5802941 Z" id="Shape" fill-rule="nonzero"></path>
                </g>
            </g>
        </g>
    </g>
</svg>