<?xml version="1.0" encoding="UTF-8"?>
<svg width="34px" height="34px" viewBox="0 0 34 34" version="1.1" xmlns="http://www.w3.org/2000/svg" xmlns:xlink="http://www.w3.org/1999/xlink">
    <!-- Generator: Sketch 62 (91390) - https://sketch.com -->
    <title>nutrition</title>
    <desc>Created with Sketch.</desc>
    <g id="Page-1" stroke="none" stroke-width="1" fill="none" fill-rule="evenodd">
        <g id="Desktop-Copy-3" transform="translate(-532.000000, -754.000000)">
            <g id="nutrition" transform="translate(532.000000, 754.000000)">
                <g id="blob-shape-(8)" fill="#9CE68F">
                    <path d="M34,17.8936302 C34,26.3883735 25.8120722,34 17.3173615,34 C8.8226509,34 0,26.3883735 0,17.8936302 C0,9.39888683 8.8226509,0 17.3173615,0 C25.8120722,0 34,9.39888683 34,17.8936302 Z" id="Path" fill-rule="nonzero"></path>
                </g>
                <g id="002-science" transform="translate(9.174603, 6.692913)" fill="#000000">
                    <path d="M15.0605124,14.6440541 L11.021978,9.8826166 L11.021978,7.22834646 L4.8986569,7.22834646 L4.8986569,9.8826166 L0.860408262,14.6437311 C0.305553724,15.296911 0,16.1266303 0,16.9800121 C0,18.9838886 1.64815311,20.6141732 3.67399267,20.6141732 L12.2466422,20.6141732 C14.2724818,20.6141732 15.9206349,18.9838886 15.9206349,16.9800121 C15.9206349,16.1266303 15.6150812,15.296911 15.0605124,14.6440541 Z M12.2466422,19.4027862 L3.67399267,19.4027862 C2.32343297,19.4027862 1.22466422,18.3159297 1.22466422,16.9800121 C1.22466422,16.4112659 1.42828506,15.8582677 1.79833777,15.4226529 L6.12332112,10.3234807 L6.12332112,8.43973349 L9.7973138,8.43973349 L9.7973138,10.3234807 L14.1225829,15.4230164 C14.4923499,15.8582677 14.6959707,16.4112659 14.6959707,16.9800121 C14.6959707,18.3159297 13.597202,19.4027862 12.2466422,19.4027862 Z" id="Shape" fill-rule="nonzero"></path>
                    <path d="M7.96031746,5.88976378 C11.0105345,5.88976378 13.4920635,3.5109645 13.4920635,0.587019646 L13.4920635,0 L12.8796931,0 C10.7398667,0 8.87993452,1.17063458 7.96031746,2.87897915 C7.0407004,1.17063458 5.18076817,0 3.04094184,0 L2.42857143,0 L2.42857143,0.587019646 C2.42857143,3.5109645 4.91010045,5.88976378 7.96031746,5.88976378 Z M12.2163326,1.2229576 C11.9299066,2.99137385 10.468505,4.3923158 8.62367791,4.66684532 C8.91010397,2.89842907 10.3715464,1.49748712 12.2163326,1.2229576 Z M7.29695701,4.66680618 C5.45217074,4.39227666 3.99072834,2.99133471 3.70430229,1.22291846 C5.54912939,1.49748712 7.01053096,2.89842907 7.29695701,4.66680618 Z" id="Shape" fill-rule="nonzero"></path>
                    <path d="M10.2227196,12.8503937 L5.69791529,12.8503937 L2.71593539,16.2653543 C2.58481252,16.4152756 2.42857143,16.6685433 2.42857143,17.023622 C2.42857143,17.6748819 2.98002504,18.2047244 3.65784832,18.2047244 L12.2627866,18.2047244 C12.9406099,18.2047244 13.4920635,17.6748819 13.4920635,17.023622 C13.4920635,16.7424803 13.3922052,16.4797638 13.2037571,16.2643307 L10.2227196,12.8503937 Z M3.66030688,17.0214961 L6.27116808,14.0314961 L9.64938489,14.0314961 L12.2618442,17.023622 L3.66030688,17.0214961 Z" id="Shape" fill-rule="nonzero"></path>
                </g>
            </g>
        </g>
    </g>
</svg>