<?xml version="1.0" encoding="UTF-8"?>
<svg width="34px" height="34px" viewBox="0 0 34 34" version="1.1" xmlns="http://www.w3.org/2000/svg" xmlns:xlink="http://www.w3.org/1999/xlink">
    <!-- Generator: Sketch 62 (91390) - https://sketch.com -->
    <title>water</title>
    <desc>Created with Sketch.</desc>
    <g id="Page-1" stroke="none" stroke-width="1" fill="none" fill-rule="evenodd">
        <g id="Desktop-Copy-3" transform="translate(-447.000000, -754.000000)">
            <g id="water" transform="translate(447.000000, 754.000000)">
                <g id="blob-shape-(8)" fill="#A1CCFF">
                    <path d="M34,17.8936302 C34,26.3883735 25.8120722,34 17.3173615,34 C8.8226509,34 0,26.3883735 0,17.8936302 C0,9.39888683 8.8226509,0 17.3173615,0 C25.8120722,0 34,9.39888683 34,17.8936302 Z" id="Path" fill-rule="nonzero"></path>
                </g>
                <g id="001-drop" transform="translate(10.523810, 8.299213)" fill="#000000">
                    <path d="M8.13800539,1.94804429 C7.72255166,1.34799669 7.35597484,0.795952899 7.01383648,0.291912917 C6.96495957,0.219907206 6.8916442,0.147901494 6.81832884,0.0998976862 C6.52506739,-0.0921175449 6.13405211,0.00389007064 5.93854447,0.291912917 C5.62084456,0.795952899 5.25426774,1.32399478 4.81437556,1.94804429 C2.88373765,4.73226514 0,8.93259832 0,11.3327887 C0,13.0849277 0.733153639,14.6690534 1.90619946,15.8211447 C3.07924528,16.9492342 4.69218329,17.6692913 6.47619048,17.6692913 C8.26019766,17.6692913 9.87313567,16.9492342 11.0461815,15.7971428 C12.2192273,14.6450514 12.952381,13.0609258 12.952381,11.3087868 C12.952381,8.90859642 10.0686433,4.73226514 8.13800539,1.94804429 Z M10.1663971,14.9330743 C9.21329739,15.8691485 7.9180593,16.4211923 6.47619048,16.4211923 C5.03432165,16.4211923 3.73908356,15.8451466 2.78598383,14.9330743 C1.8328841,13.997 1.27079964,12.7248991 1.27079964,11.3087868 C1.27079964,9.29262688 4.03234501,5.28430893 5.86522911,2.6200976 C6.0851752,2.30807284 6.28068284,1.99604809 6.47619048,1.73202715 C6.67169811,1.99604809 6.86720575,2.30807284 7.08715184,2.6200976 C8.92003594,5.30831083 11.6815813,9.29262688 11.6815813,11.3087868 C11.6815813,12.7248991 11.0950584,13.997 10.1663971,14.9330743 Z" id="Shape" fill-rule="nonzero"></path>
                    <path d="M10.1908562,10.9778943 C9.840149,10.9538888 9.53954286,11.217949 9.51449235,11.5540256 C9.48944184,12.082146 9.31408825,12.5862609 9.03853263,13.0183594 C8.762977,13.4504579 8.36216882,13.8345454 7.8862091,14.0746002 C7.58560296,14.2426385 7.4603504,14.626726 7.63570398,14.9147917 C7.83610808,15.2508683 8.23691626,15.3468902 8.5375224,15.1788519 C9.21388621,14.8187698 9.76499746,14.2906494 10.1407551,13.6905126 C10.5415633,13.0903758 10.7670179,12.3702117 10.7920684,11.626042 C10.8171189,11.2899654 10.5415633,11.0018998 10.1908562,10.9778943 Z" id="Path" fill-rule="nonzero"></path>
                </g>
            </g>
        </g>
    </g>
</svg>