<?xml version="1.0" encoding="UTF-8"?>
<svg width="126px" height="127px" viewBox="0 0 126 127" version="1.1" xmlns="http://www.w3.org/2000/svg" xmlns:xlink="http://www.w3.org/1999/xlink">
    <!-- Generator: Sketch 62 (91390) - https://sketch.com -->
    <title>water</title>
    <desc>Created with Sketch.</desc>
    <g id="Page-1" stroke="none" stroke-width="1" fill="none" fill-rule="evenodd">
        <g id="Desktop-Copy-3" transform="translate(-233.000000, -734.000000)">
            <g id="water" transform="translate(233.000000, 734.000000)">
                <g id="blob-shape-(8)" fill="#A1CCFF">
                    <path d="M126,66.8379716 C126,98.5683364 95.6565028,127 64.1761045,127 C32.6957063,127 0,98.5683364 0,66.8379716 C0,35.1076067 32.6957063,0 64.1761045,0 C95.6565028,0 126,35.1076067 126,66.8379716 Z" id="Path" fill-rule="nonzero"></path>
                </g>
                <g id="001-drop" transform="translate(39.000000, 31.000000)" fill="#000000">
                    <path d="M30.1584906,7.27651836 C28.6188679,5.0351641 27.2603774,2.97311818 25.9924528,1.0903806 C25.8113208,0.821418092 25.5396226,0.552455581 25.2679245,0.37314724 C24.1811321,-0.344086124 22.7320755,0.014530558 22.0075472,1.0903806 C20.8301887,2.97311818 19.4716981,4.94550993 17.8415094,7.27651836 C10.6867925,17.6764021 0,33.365882 0,42.331299 C0,48.8760534 2.71698113,54.7932287 7.06415094,59.0966289 C11.4113208,63.3103749 17.3886792,66 24,66 C30.6113208,66 36.5886792,63.3103749 40.9358491,59.0069747 C45.2830189,54.7035745 48,48.7863993 48,42.2416448 C48,33.2762278 37.3132075,17.6764021 30.1584906,7.27651836 Z M37.6754717,55.7794246 C34.1433962,59.2759372 29.3433962,61.3379831 24,61.3379831 C18.6566038,61.3379831 13.8566038,59.186283 10.3245283,55.7794246 C6.79245283,52.2829119 4.70943396,47.5312409 4.70943396,42.2416448 C4.70943396,34.7106945 14.9433962,19.7384481 21.7358491,9.78683514 C22.5509434,8.62133092 23.2754717,7.4558267 24,6.46963083 C24.7245283,7.4558267 25.4490566,8.62133092 26.2641509,9.78683514 C33.0566038,19.8281022 43.290566,34.7106945 43.290566,42.2416448 C43.290566,47.5312409 41.1169811,52.2829119 37.6754717,55.7794246 Z" id="Shape" fill-rule="nonzero"></path>
                    <path d="M37.766114,41.005664 C36.4664345,40.9159965 35.3524235,41.902339 35.2595893,43.1576839 C35.166755,45.1303689 34.5169153,47.0133863 33.4957386,48.6274013 C32.4745618,50.2414163 30.9892139,51.6760962 29.2253631,52.5727712 C28.1113522,53.2004437 27.6471809,54.6351236 28.2970206,55.7111336 C29.0396946,56.9664786 30.5250426,57.3251486 31.6390536,56.6974761 C34.1455783,55.3524636 36.1879318,53.3797787 37.5804455,51.1380912 C39.0657935,48.8964038 39.9013017,46.2063789 39.994136,43.4266864 C40.0869702,42.1713415 39.0657935,41.0953315 37.766114,41.005664 Z" id="Path" fill-rule="nonzero"></path>
                </g>
            </g>
        </g>
    </g>
</svg>