<?xml version="1.0" encoding="UTF-8"?>
<svg width="434px" height="556px" viewBox="0 0 434 556" version="1.1" xmlns="http://www.w3.org/2000/svg" xmlns:xlink="http://www.w3.org/1999/xlink">
    <!-- Generator: Sketch 62 (91390) - https://sketch.com -->
    <title>blob-shape (5)</title>
    <desc>Created with Sketch.</desc>
    <g id="Page-1" stroke="none" stroke-width="1" fill="none" fill-rule="evenodd">
        <g id="Desktop-Copy-2" transform="translate(0.000000, -429.000000)" fill="#FFE1BF" fill-rule="nonzero">
            <g id="blob-shape-(5)" transform="translate(-200.000000, 429.000000)">
                <path d="M563.667099,83.2300599 C607.565366,132.211026 614.787339,197.442686 623.850207,259.355542 C632.913075,321.38284 644.100053,379.976893 616.769841,423.235783 C589.43963,466.380232 523.733838,494.075077 452.788574,518.794443 C381.701704,543.62825 305.375363,565.486579 239.103141,551.753598 C172.830919,538.020616 116.612817,488.581885 71.5816914,431.246689 C26.6921737,373.911493 -6.86875921,308.679833 1.20285755,245.50812 C9.27447432,182.221965 59.120248,121.110199 125.534077,75.3335958 C192.089514,29.4425507 275.213006,-1.11333219 357.062032,0.0310828948 C439.052665,1.17549798 519.768833,34.1346526 563.667099,83.2300599 Z" id="Path"></path>
            </g>
        </g>
    </g>
</svg>