<?xml version="1.0" encoding="UTF-8"?>
<svg width="791px" height="300px" viewBox="0 0 791 300" version="1.1" xmlns="http://www.w3.org/2000/svg" xmlns:xlink="http://www.w3.org/1999/xlink">
    <!-- Generator: Sketch 62 (91390) - https://sketch.com -->
    <title>Rectangle</title>
    <desc>Created with Sketch.</desc>
    <g id="Page-1" stroke="none" stroke-width="1" fill="none" fill-rule="evenodd">
        <g id="Desktop-Copy-2" transform="translate(-117.000000, -35.000000)" fill="#81A4CD">
            <path d="M127.692949,46.7439891 C126.771284,39.8995847 188.312604,36.4773825 312.316909,36.4773825 C398.735398,36.4773825 517.950247,33.1532719 664.717851,36.4773825 C710.186923,37.5072026 779.713303,41.0361189 873.296989,47.0641313 L873.296989,47.064131 C879.08556,47.4369906 884.218973,50.9135733 886.713458,56.150378 C894.554134,72.6107302 899.70293,97.9046736 902.159843,132.032208 C903.833355,155.277961 908.228697,186.685545 907.990703,226.272431 C907.887173,243.493133 903.890734,272.781829 896.001387,314.138518 L896.001384,314.138517 C894.738378,320.759308 889.461651,325.878594 882.805651,326.940531 C856.82919,331.084967 792.665896,333.501343 690.315768,334.189656 C610.461015,334.726687 503.713675,335.707294 370.055352,334.189656 C323.92108,333.66582 248.936383,330.463559 145.10126,324.582872 L145.10126,324.582874 C139.42983,324.261674 134.353918,320.957483 131.764702,315.901373 C124.123657,300.98027 119.603056,276.404217 118.202899,242.173215 C117.169609,216.911382 116.113243,182.982314 118.202899,140.457783 C119.065875,122.896199 122.232508,93.0569701 127.702796,50.9400959 L127.702797,50.9400961 C127.883734,49.5470262 127.880423,48.1361943 127.692949,46.7439891 Z" id="Rectangle"></path>
        </g>
    </g>
</svg>