<?xml version="1.0" encoding="iso-8859-1"?>
<!-- Generator: Adobe Illustrator 18.0.0, SVG Export Plug-In . SVG Version: 6.00 Build 0)  -->
<!DOCTYPE svg PUBLIC "-//W3C//DTD SVG 1.1//EN" "http://www.w3.org/Graphics/SVG/1.1/DTD/svg11.dtd">
<svg version="1.1" id="Capa_1" xmlns="http://www.w3.org/2000/svg" xmlns:xlink="http://www.w3.org/1999/xlink" x="0px" y="0px"
	 viewBox="0 0 464.976 464.976" style="enable-background:new 0 0 464.976 464.976;" xml:space="preserve">
<path d="M310.425,396.569c-0.016-4.963-4.221-8.81-9.081-8.469l-17.974,1.23c0.113-2.428-0.081-4.889-0.597-7.337
	c-0.57-2.705-1.511-5.263-2.771-7.631c6.029-1.086,12.344-3.449,18.643-7.726c3.784-2.569,5.089-7.714,2.701-11.614
	c-2.564-4.186-8.077-5.32-12.069-2.574c-11.444,7.867-23.291,5.985-30.964,3.203c-1.675-0.607-3.267-1.411-4.776-2.357l0,0
	c-1.517-0.951-2.576-2.488-2.903-4.248c-0.46-2.473-0.856-5.671-0.767-6.827c0.787-10.219,1.101-20.523,0.948-30.811
	c-0.044-2.984-0.388-243.549-0.467-245.818c-0.723-20.858-14.8-38.524-35.029-43.959c-7.359-1.977-15.766-6.063-24.666-10.389
	c-8.053-3.914-16.377-7.959-24.612-10.735c-2.415-0.814-5.092-0.675-7.285,0.624c-3.471,2.056-4.956,6.121-3.84,9.804
	c8.127,26.818,25.58,48.034,50.473,61.353c11.196,5.99,21.538,9.123,28.176,10.689v176.048c-0.559-0.464-1.126-0.92-1.709-1.359
	c-10.491-7.891-23.88-10.89-36.732-8.229l-0.733,0.152c-22.394,4.638-37.971,25.342-36.233,48.161
	c0.941,12.346,0.941,24.865,0,37.211c-1.737,22.819,13.84,43.523,36.227,48.159l0.74,0.154h0.001
	c3.072,0.636,6.172,0.949,9.259,0.949c9.825,0,19.489-3.172,27.473-9.177c2.107-1.585,4.048-3.344,5.825-5.238
	c-0.284,7.296-3.514,14.393-9.373,19.392c-13.149,11.218-19.11,28.703-14.515,45.366l6.664,24.169c1.04,3.77,4.46,6.243,8.189,6.243
	c0.979,0,1.98-0.171,2.963-0.532c4.191-1.539,6.344-6.21,5.158-10.514l-5.021-18.211c8.168,2.801,14.514,9.508,16.727,18.081
	c0.989,3.833,4.44,6.378,8.225,6.378c0.952,0,1.927-0.162,2.887-0.504c4.197-1.498,6.411-6.143,5.263-10.45
	c-4.403-16.53-18.105-28.832-35.025-31.431c1.192-5.885,4.325-11.335,9.111-15.319c8.893-7.402,14.192-17.724,15.473-28.573
	l6.146,3.853c2.673,1.675,4.728,4.258,5.488,7.319c0.817,3.288,0.215,6.663-1.673,9.451c-8.716,12.871-5.722,30.149,6.817,39.335
	l13.284,9.733c1.514,1.109,3.272,1.644,5.017,1.644c2.8,0,5.561-1.379,7.2-3.972c2.413-3.815,1.239-8.887-2.402-11.556
	l-13.052-9.564c-4.28-3.135-5.829-8.573-4.157-13.347l25.137-1.72C306.728,404.771,310.44,401.095,310.425,396.569z M179.171,24.569
	c1.354,0.652,2.707,1.31,4.051,1.963c9.225,4.483,18.763,9.119,27.687,11.517c12.694,3.41,21.608,14.319,22.409,27.296
	C219.531,61.394,194.348,50.871,179.171,24.569z M197.829,266.238l0.743-0.154c8.074-1.672,16.477,0.214,23.065,5.168
	c6.542,4.921,10.653,12.41,11.28,20.546c0.482,6.268,0.775,12.57,0.886,18.88c-15.542-15.57-38.715-20.059-58.583-12.531
	c-0.039-0.563-0.07-1.126-0.112-1.688C174.017,282.139,183.789,269.146,197.829,266.238z M221.637,361.46
	c-6.588,4.955-14.994,6.837-23.065,5.168h0.001l-0.735-0.152c-14.049-2.909-23.82-15.902-22.729-30.222
	c0.497-6.523,0.746-13.091,0.752-19.66c14.895-8.562,34.148-6.079,46.324,6.496l11.154,11.519c-0.12,2.105-0.259,4.208-0.42,6.307
	C232.291,349.05,228.179,356.539,221.637,361.46z"/>
<g>
</g>
<g>
</g>
<g>
</g>
<g>
</g>
<g>
</g>
<g>
</g>
<g>
</g>
<g>
</g>
<g>
</g>
<g>
</g>
<g>
</g>
<g>
</g>
<g>
</g>
<g>
</g>
<g>
</g>
</svg>
