<?xml version="1.0" encoding="UTF-8"?>
<svg width="151px" height="142px" viewBox="0 0 151 142" version="1.1" xmlns="http://www.w3.org/2000/svg" xmlns:xlink="http://www.w3.org/1999/xlink">
    <!-- Generator: Sketch 62 (91390) - https://sketch.com -->
    <title>plant2</title>
    <desc>Created with Sketch.</desc>
    <g id="Page-1" stroke="none" stroke-width="1" fill="none" fill-rule="evenodd">
        <g id="Desktop-Copy-3" transform="translate(-714.000000, -752.000000)">
            <g id="plant2" transform="translate(714.000000, 752.000000)">
                <g id="blob-shape-(7)" fill="#FFD1D0">
                    <path d="M123.473958,29.1060773 C141.051302,47.3071823 155.286198,71.9414365 149.741667,90.3779006 C144.157812,108.853591 118.794531,121.092265 94.846875,130.349724 C70.8598958,139.607182 48.2885417,145.844199 31.4976562,138.430387 C14.7460938,130.977348 3.775,109.912707 0.94375,89.3187845 C-1.8875,68.7248619 3.42109375,48.640884 15.3359375,31.7342541 C27.2114583,14.8276243 45.6539062,1.13756906 65.3153646,0.156906077 C85.0161458,-0.823756906 105.896615,10.9441989 123.473958,29.1060773 Z" id="Path" fill-rule="nonzero"></path>
                </g>
                <g id="002-plant" transform="translate(33.031250, 19.613260)">
                    <path d="M20.8411458,18.8486024 C20.8411458,18.8486024 21.1685739,8.18490987 30.1140367,3.6411172 L33.4244792,1.96132597 L33.4244792,1.96132597 C30.8673539,7.58636982 29.5433202,13.7053633 29.5433202,19.8977695 L29.5433202,20.4029576 L25.5246736,26.6740331 L20.8411458,18.8486024 Z" id="Path" fill="#D8FB93" fill-rule="nonzero"></path>
                    <path d="M22.4140625,47.4640884 L22.4140625,45.9518535 C22.4140625,30.5690694 29.8680269,16.1139954 42.46875,7.06077348 L42.46875,7.06077348 L42.4593524,7.08096086 C38.7378982,15.0864395 35.7815201,29.7526626 34.3888309,38.4048649 L32.4414984,47.4640884 L22.4140625,47.4640884 Z" id="Path" fill="#A0E557" fill-rule="nonzero"></path>
                    <path d="M24.3802083,33.0321117 L24.3802083,33.0321117 C24.3802083,22.9431499 18.5091505,13.7511625 9.2863086,9.40069097 L4.32552083,7.06077348 L4.65682967,7.65511907 C9.11273078,15.6489581 12.1794565,24.286611 13.7635845,33.2094333 L20.6904819,47.4640884 L24.3802083,33.0321117 Z" id="Path" fill="#62CD4D" fill-rule="nonzero"></path>
                    <path d="M18.4817708,47.3395182 L18.4817708,47.3395182 C18.4817708,38.8545186 13.6466186,31.1238709 6.05144325,27.4651913 L1.96614583,25.4972376 L2.23901772,25.9971598 C5.90451223,32.7128249 8.42857715,39.9685373 9.73448987,47.4640884 L18.4817708,47.3395182 Z" id="Path" fill="#A0E557" fill-rule="nonzero"></path>
                    <path d="M31.8515625,47.8563536 L31.8515625,47.8563536 C33.873509,37.9871575 38.8856174,28.9989999 46.1918817,22.1399278 L46.7942708,21.5745856 L46.0455151,27.5227783 C45.1541736,34.6040206 43.0760569,41.4801968 39.9002813,47.8563536 L39.9002813,47.8563536 L31.8515625,47.8563536 Z" id="Path" fill="#62CD4D" fill-rule="nonzero"></path>
                    <polygon id="Path" fill="#FF5D5D" fill-rule="nonzero" points="85.5495467 91.3977901 63.0912604 91.3977901 57.0182292 66.6850829 91.6223958 66.6850829"></polygon>
                    <polygon id="Path" fill="#FFB9B7" fill-rule="nonzero" points="59.4295932 76.8839779 89.2112139 76.8839779 91.6223958 67.0773481 57.0182292 67.0773481"></polygon>
                    <path d="M33.484732,91.3977901 L15.2756846,91.3977901 C7.7078942,91.3977901 1.57291667,85.2921039 1.57291667,77.7600368 L1.57291667,47.4640884 L47.1875,47.4640884 L47.1875,77.7600368 C47.1875,85.2921039 41.0527064,91.3977901 33.484732,91.3977901 Z" id="Path" fill="#FFB954" fill-rule="nonzero"></path>
                    <rect id="Rectangle" fill="#FEDA9B" fill-rule="nonzero" x="1.57291667" y="47.4640884" width="45.6145833" height="8.23756906"></rect>
                    <path d="M61.0556717,47.3216146 C60.0548823,49.5549864 59.8591982,52.147283 60.6595752,54.6221399 L60.6595752,54.6221399 C61.353017,56.7657804 62.736627,58.6139868 64.5905336,59.8729765 L75.1991201,67.0773481 L79.8255208,67.0773481 L79.8251571,51.6896354 C79.8251571,49.4347942 79.0780659,47.2445449 77.7026396,45.4673528 L77.7026396,45.4673528 C75.9914951,43.256368 73.5223477,41.937374 70.9189856,41.6434079 L70.9189856,41.6434079 C66.7641545,41.1631899 62.779001,43.4508774 61.0654923,47.2999617 L61.0556717,47.3216146 Z" id="Path" fill="#36D28F" fill-rule="nonzero"></path>
                    <path d="M67.1066651,27.0072618 L67.1066651,27.0072618 C66.3333239,24.6769297 67.347998,22.1413825 69.5136873,20.9485808 C71.72909,19.8477156 74.4349495,20.4356342 75.969018,22.3675752 L75.969018,22.3675752 C76.6842983,23.2683329 77.0727312,24.3781365 77.0727312,25.5209568 L77.0729167,34.9116022 L69.1506677,29.6683095 C68.1866345,29.0302272 67.4672732,28.093534 67.1066651,27.0072618 Z" id="Path" fill="#B2F0BF" fill-rule="nonzero"></path>
                    <path d="M79.7536794,48.2486188 L87.4333847,43.0327942 C88.6940159,42.1766554 89.6347422,40.9199027 90.1060096,39.4624783 L90.1060096,39.4624783 C91.1169016,36.3361943 89.7893599,32.9348075 86.9570538,31.3350886 C84.0596455,29.8586915 80.5213425,30.6480613 78.5156532,33.2400111 L78.5156532,33.2400111 C77.5805328,34.4484201 77.0727359,35.9375872 77.0729167,37.4705372 L77.0738209,43.9469454 L79.7536794,48.2486188 Z" id="Path" fill="#36D28F" fill-rule="nonzero"></path>
                    <path d="M65.4341053,44.3259669 C64.8328578,44.3259669 64.2489025,44.0097696 63.9300355,43.445841 C63.4574415,42.6097912 63.7469119,41.5460446 64.5767613,41.0697453 L64.6680638,41.0176555 C65.5020634,40.5481505 66.5553272,40.8472748 67.0215231,41.6869831 C67.4880648,42.5265172 67.1906401,43.5881733 66.3573323,44.0580267 L66.2883366,44.0972247 C66.0184064,44.2522746 65.7240943,44.3259669 65.4341053,44.3259669 Z" id="Path" fill="#000000" fill-rule="nonzero"></path>
                    <path d="M35.9804688,57.6629834 C35.515082,57.6629834 35.058543,57.4741077 34.7294102,57.1457818 C34.4002773,56.8174558 34.2109375,56.3620359 34.2109375,55.8977901 C34.2109375,55.4335442 34.4001004,54.9781243 34.7294102,54.6497983 C35.058543,54.3214724 35.515082,54.1325967 35.9804688,54.1325967 C36.4458555,54.1325967 36.9023945,54.3214724 37.2313504,54.6497983 C37.5604832,54.9781243 37.75,55.4335442 37.75,55.8977901 C37.75,56.3620359 37.5606602,56.8174558 37.2313504,57.1457818 C36.9023945,57.4741077 36.4458555,57.6629834 35.9804688,57.6629834 Z" id="Path" fill="#000000" fill-rule="nonzero"></path>
                    <path d="M47.3195546,45.9503732 L42.8306162,45.9503732 C45.4563013,40.1283972 47.1966705,33.9783893 48.0093563,27.6274411 L48.7721549,21.6667034 C48.8695451,20.9054284 48.477233,20.1651227 47.7905492,19.8144803 C47.1034986,19.4636556 46.2699041,19.5783483 45.7044538,20.1003915 L45.0907669,20.666926 C42.5375284,23.0247816 40.2590368,25.6078287 38.271799,28.378505 C39.8823145,20.6919067 41.9530035,12.9223432 44.2039837,8.04489523 L44.2133376,8.02465534 C44.5608979,7.27085633 44.352912,6.3788426 43.7071284,5.85388194 C43.0617117,5.32892129 42.1411813,5.30302882 41.4666025,5.79097419 C37.8229968,8.427812 34.5447421,11.5611652 31.7339973,15.0646713 C32.2458921,10.7561283 33.4351169,6.51268113 35.2532516,2.58596083 C35.5788028,1.88248803 35.4221714,1.0513763 34.8624067,0.512922384 C34.3024587,-0.0253491883 33.462078,-0.153717477 32.7653068,0.193278053 L29.3738886,1.88303505 C24.0951906,4.51294389 20.4446153,9.30067989 19.269513,14.8803242 C16.7430523,11.9898497 13.6438049,9.63327045 10.1351883,7.96630612 L5.19763123,5.62012037 C4.47940109,5.27877743 3.62031274,5.43741437 3.07338673,6.01324826 C2.5262773,6.58908214 2.4156816,7.45009785 2.79974031,8.14408891 L3.12950992,8.74016268 C6.51175762,14.8522437 9.06756379,21.3335658 10.7655655,28.0699835 C9.5198507,27.1464247 8.18298158,26.338288 6.76577926,25.6649015 L2.62495141,23.6974387 C1.90617105,23.3557311 1.04744952,23.5147327 0.500706915,24.0907489 C-0.0462190998,24.6665828 -0.156814803,25.5277808 0.227427317,26.2217719 L0.50382487,26.7213871 C3.84150415,32.7526909 6.21775279,39.2141379 7.58268351,45.9503732 L1.83409126,45.9503732 C0.821306067,45.9503732 0,46.7667153 0,47.7737864 L0,77.9512746 C0,86.447286 6.95248975,93.359116 15.4980712,93.359116 L33.6555747,93.359116 C42.2013395,93.359116 49.1536458,86.4471037 49.1536458,77.9512746 L49.1536458,47.7737864 C49.1536458,46.7667153 48.3325232,45.9503732 47.3195546,45.9503732 Z M44.453787,26.5169825 L44.3705192,27.1672116 C43.5338068,33.7059713 41.6551471,40.0188101 38.7860782,45.9503732 L34.0376159,45.9503732 C35.9116903,38.6977473 39.4635915,32.0783927 44.453787,26.5169825 Z M38.3546999,13.1891085 C35.3574279,22.6068553 33.3377266,34.3675056 32.6924933,38.4049071 C32.6908427,38.4153006 32.6906593,38.425694 32.6890086,38.4360875 C31.6899791,40.8586742 30.87766,43.3686025 30.2610386,45.9505555 L24.4225758,45.9505555 C24.506027,33.5828909 29.6044339,21.771185 38.3546999,13.1891085 Z M30.105691,5.63598407 C28.5744082,10.216398 27.7769454,15.057013 27.7769454,19.8666299 L27.7769454,20.3748152 C27.7769454,20.4891432 27.7888669,20.6007361 27.8092254,20.7092292 C27.251845,21.640811 26.7221595,22.5886211 26.2276885,23.5544831 C25.8544509,24.2834837 25.5006547,25.0223307 25.1644658,25.7688361 C24.5364729,23.5273142 23.6287811,21.3645639 22.4536789,19.3292701 C22.5026491,19.1649805 22.5299771,18.9912093 22.5299771,18.8112384 C22.5296102,13.3347992 25.4069326,8.37639175 30.105691,5.63598407 Z M8.55346801,11.2566552 C16.9824012,15.2615999 22.4485434,23.8168723 22.5301605,33.0942162 C21.38367,37.2800435 20.780254,41.6132026 20.7531095,45.9503732 L20.3729023,45.9503732 C20.1623487,41.8763211 18.9102146,37.9279022 16.7131566,34.4628701 C16.3448711,33.8819307 15.9498078,33.3212311 15.5353032,32.7771246 C14.1817439,25.3020423 11.840343,18.0840612 8.55291778,11.2562905 L8.55346801,11.2566552 Z M5.94520683,29.336891 C12.1664444,32.6234109 16.2656384,38.9747237 16.6995844,45.9503732 L11.3223956,45.9503732 C10.2182727,40.1980516 8.4166448,34.6317182 5.94520683,29.336891 Z M45.4854633,77.9512746 C45.4854633,84.4362436 40.1785202,89.7122897 33.6555747,89.7122897 L15.4980712,89.7122897 C8.97512559,89.7122897 3.66818252,84.4364259 3.66818252,77.9512746 L3.66818252,57.8025589 L28.8869374,57.8025589 C29.8997226,57.8025589 30.7210286,56.9862168 30.7210286,55.9791457 C30.7210286,54.9720746 29.8997226,54.1557325 28.8869374,54.1557325 L3.66818252,54.1557325 L3.66818252,49.5971996 L31.7174904,49.5971996 C31.7246434,49.5971996 31.7317963,49.5971996 31.7389493,49.5971996 L39.9217475,49.5971996 C39.923765,49.5971996 39.9259659,49.5971996 39.9279834,49.5971996 C39.9298175,49.5971996 39.9314681,49.5971996 39.9331188,49.5971996 L45.4854633,49.5971996 L45.4854633,77.9512746 Z" id="Shape" fill="#000000" fill-rule="nonzero"></path>
                    <path d="M93.2013816,65.5400444 C92.8570029,65.0981816 92.3300816,64.8400475 91.7721008,64.8400475 L81.9336939,64.8400475 L81.9333306,51.3379139 C81.9333306,50.5881914 81.8592238,49.8421253 81.719547,49.1097702 L88.3789893,44.5969933 C89.9733757,43.5165593 91.1797912,41.9085226 91.7755519,40.0695911 C93.0540761,36.1246361 91.3706889,31.7901033 87.7732387,29.7630557 C87.750716,29.7504415 87.7280117,29.7381929 87.7049441,29.7264928 C84.7842636,28.2414903 81.3402944,28.5767721 78.774709,30.4129614 L78.7745274,25.3957991 C78.7745274,23.8504678 78.2541449,22.3285367 77.3091013,21.1104434 C75.2822435,18.497658 71.6777095,17.6863271 68.7375941,19.18175 C68.7145265,19.1934502 68.6916406,19.2056987 68.6691179,19.2184957 C65.7954807,20.8382326 64.4513864,24.3012885 65.4730797,27.4526455 L65.4730797,27.4526455 C65.949325,28.9217432 66.9132585,30.2061982 68.1870603,31.0690828 L75.2965926,35.8851491 C75.1956039,36.4184191 75.1420217,36.9615611 75.1422034,37.5072625 L75.1425666,40.5664811 C73.9851925,40.020414 72.7346399,39.6602694 71.4239663,39.5125552 C70.4284284,39.4001243 69.5282485,40.1226074 69.4169066,41.1260764 C69.3053831,42.1295454 70.0230205,43.0339289 71.0198299,43.1461771 C72.7840444,43.3448965 74.3944147,44.0926079 75.6680349,45.2825478 C75.6956433,45.3107012 75.7250681,45.3366609 75.7544928,45.3628034 C76.0434731,45.6406815 76.3146532,45.9412286 76.5653086,46.2642619 C77.6841763,47.7066686 78.3004617,49.5086716 78.3004617,51.3382795 L78.3010066,64.8400475 L76.0511017,64.8400475 L65.9157226,57.9742646 C64.4076125,56.9526969 63.2664038,55.4318627 62.7022474,53.6923824 C62.0668904,51.7327933 62.181865,49.6185431 63.0261015,47.7393924 C63.4393197,46.8194696 63.0333669,45.7364763 62.1193828,45.3205732 C61.205217,44.9044873 60.1292151,45.3130778 59.7159969,46.2331834 C58.4974119,48.9457856 58.3315798,51.9976915 59.2490149,54.8271122 C60.0632818,57.3380699 61.7107055,59.5331242 63.8874117,61.0077062 L69.5451405,64.8400475 L57.2615717,64.8400475 C56.7037726,64.8400475 56.1766697,65.0981816 55.8324725,65.5398616 C55.4882754,65.9815415 55.3647641,66.5581386 55.4975388,67.1034743 L61.5541366,91.966252 C61.7533895,92.7839815 62.4815617,93.359116 63.3181696,93.359116 L85.7156846,93.359116 C86.5521108,93.359116 87.2804646,92.7841643 87.4797175,91.966252 L93.5363154,67.1034743 C93.6690901,66.5583214 93.5455787,65.9817243 93.2013816,65.5400444 Z M86.0326366,32.9725478 C88.0976376,34.157186 89.0602998,36.6584546 88.3221377,38.9359582 C87.9761242,40.0035951 87.2757421,40.9368633 86.3503151,41.5641 L80.4453819,45.5655447 C80.1476832,45.0238652 79.8091167,44.5039407 79.4287744,44.0136321 C79.2211663,43.7459916 79.001752,43.4913309 78.7756172,43.2450797 L78.7750722,37.5063484 C78.7748907,36.3835015 79.1528718,35.2776564 79.8394497,34.3921027 C81.3039675,32.5039941 83.9029736,31.9107609 86.0326366,32.9725478 Z M70.2157345,28.0356411 C69.6107105,27.6257709 69.1528102,27.0157188 68.9266755,26.3180985 L68.9266755,26.3180985 C68.445526,24.8341928 69.0690768,23.2047668 70.4106282,22.4276222 C71.8003127,21.7413364 73.4916919,22.1303658 74.4459989,23.3607076 C74.8948174,23.9393157 75.1420217,24.6621644 75.1420217,25.3959819 L75.1422034,31.3731034 L70.2157345,28.0356411 Z M84.290763,89.7028252 L64.7430912,89.7028252 L59.5772282,68.4963383 L75.4969353,68.4963383 L80.1173502,68.4963383 L89.4566259,68.4963383 L87.9425219,74.7120327 L67.8568491,74.7120327 C66.8538641,74.7120327 66.0405054,75.5304935 66.0405054,76.5401782 C66.0405054,77.5498629 66.8538641,78.3683236 67.8568491,78.3683236 L87.051787,78.3683236 L84.290763,89.7028252 Z" id="Shape" fill="#000000" fill-rule="nonzero"></path>
                </g>
            </g>
        </g>
    </g>
</svg>