<?xml version="1.0" encoding="UTF-8"?>
<svg width="126px" height="142px" viewBox="0 0 126 142" version="1.1" xmlns="http://www.w3.org/2000/svg" xmlns:xlink="http://www.w3.org/1999/xlink">
    <!-- Generator: Sketch 62 (91390) - https://sketch.com -->
    <title>plant1</title>
    <desc>Created with Sketch.</desc>
    <g id="Page-1" stroke="none" stroke-width="1" fill="none" fill-rule="evenodd">
        <g id="Desktop-Copy-3" transform="translate(-157.000000, -749.000000)">
            <g id="plant1" transform="translate(157.000000, 749.000000)">
                <g id="blob-shape-(6)" fill="#B1C6FF">
                    <path d="M116.192947,6.55874439 C126.190428,15.6964126 126.253904,35.9775785 125.460453,53.1704036 C124.667003,70.3950673 122.984887,84.5632287 117.875063,99.7820628 C112.765239,115.000897 104.19597,131.334081 90.6438287,138.083857 C77.1234257,144.833632 58.5884131,142.063677 43.8619647,134.295067 C29.1355164,126.526457 18.1858942,113.82287 10.3148615,99.5910314 C2.44382872,85.3591928 -2.34861461,69.5991031 1.26952141,56.4179372 C4.8559194,43.2367713 16.8211587,32.6026906 29.0720403,23.9107623 C41.3229219,15.1869955 53.8277078,8.3735426 70.0458438,3.94798206 C86.2639798,-0.477578475 106.195466,-2.5470852 116.192947,6.55874439 Z" id="Path" fill-rule="nonzero"></path>
                </g>
                <g id="001-plant-1" transform="translate(29.516373, 13.372197)">
                    <g id="Group" transform="translate(1.904282, 2.228700)" fill-rule="nonzero">
                        <path d="M25.3254617,39.589387 C20.2542235,20.1078616 11.2557608,5.05291617 10.8650578,16.9497891 C10.620978,24.3813761 5.00802336,36.7673545 11.1091373,45.5501391 C17.2102513,54.3329238 16.4788903,65.758285 16.4788903,65.758285 L28.6811184,65.758285 C29.0059726,57.4408542 27.5397386,48.0933113 25.3254617,39.589387 Z" id="Path" fill="#A6F074"></path>
                        <path d="M25.8136211,15.3179716 C23.5563232,22.9738786 25.3254617,39.589387 25.3254617,39.589387 C27.5397386,48.0933113 29.0059726,57.4408542 28.6811184,65.758285 L34.4775717,65.758285 C34.3019748,61.2648491 34.6487788,56.4705605 35.3546783,51.6709939 C36.8279361,41.6460929 39.8648844,31.5983198 42.9668034,24.2203935 C42.5313231,11.4895783 38.9201731,0 36.3687504,0 C32.891054,0 28.0709192,7.66118499 25.8136211,15.3179716 Z" id="Path" fill="#73CA5B"></path>
                        <path d="M42.9668034,24.2203935 C39.8648844,31.5983198 36.8279361,41.6460929 35.3546783,51.6709939 C34.6487788,56.4705605 34.3019748,61.2648491 34.4775717,65.758285 L46.6797999,65.758285 C46.6797999,65.758285 45.9475607,54.3329238 52.0495528,45.5501391 C58.1506668,36.7673545 52.5377122,24.3813761 52.2936324,16.9497891 C52.0161893,8.52591634 47.4243307,13.6148996 42.9668034,24.2203935 Z" id="Path" fill="#A6F074"></path>
                        <path d="M46.6797999,65.758285 L4.30739165,65.758285 C2.00004871,65.758285 0.112382011,67.6012272 0.112382011,69.8532232 C0.112382011,72.1052193 2.00004871,73.9472816 4.30739165,73.9472816 L58.8504204,73.9472816 C61.1577635,73.9472816 63.0463082,72.1052193 63.0463082,69.8532232 C63.0463082,67.6012272 61.1577635,65.758285 58.8504204,65.758285 L46.6797999,65.758285 Z" id="Path" fill="#F7F7F7"></path>
                        <polygon id="Path" fill="#F7F7F7" points="56.8591516 73.9472816 5.35658314 73.9472816 6.98875631 81.574159 13.2435176 110.798206 49.9151726 110.798206 57.802107 73.9472816"></polygon>
                    </g>
                    <path d="M29.2259926,13.1784567 C29.519962,13.3098931 29.8268245,13.3721973 30.1293894,13.3721973 C30.9683191,13.3721973 31.7694282,12.8933936 32.13646,12.0842922 L32.1759996,11.9980905 C32.6779822,10.8996583 32.1863143,9.60833926 31.0800617,9.10990543 C29.9738092,8.61147161 28.6672793,9.1013705 28.164437,10.1998026 L28.1248974,10.2885648 C27.6246341,11.3887038 28.118021,12.6825834 29.2259926,13.1784567 Z" id="Path" fill="#000000" fill-rule="nonzero"></path>
                    <path d="M67.2846348,72.076082 C67.2846348,68.5781052 64.4005069,65.7317124 60.854922,65.7317124 L50.9488365,65.7317124 C51.071491,62.2047178 51.8485933,54.9238614 55.9093262,49.0692791 C60.8102408,42.0012206 59.0457714,33.1859325 57.6282382,26.1038049 C57.1078338,23.5036245 56.6163406,21.0485338 56.5532612,19.1201621 C56.4796687,16.8734726 56.1397411,14.1572208 54.1527417,13.0967484 C53.5175678,12.7573267 52.2069192,12.3422827 50.5747411,13.3719787 C49.2640925,14.1976699 47.8921166,15.937865 46.5437958,18.212693 C46.0934792,14.9143243 45.4530486,11.7416999 44.6610524,8.96917095 C42.3709218,0.946159602 40.0098268,0.00791396311 38.4328432,0 C38.4249583,0 38.4170733,0 38.4091884,0 C36.7007896,0 34.9976473,0.910986383 33.2051424,2.78308093 C32.3465624,3.67999803 32.3745977,5.10539291 33.2682218,5.96625729 C34.1609698,6.82800116 35.5811311,6.79986259 36.438835,5.90382477 C37.2080527,5.10099609 37.7442269,4.75805731 38.0613759,4.61120907 C39.4622631,6.41119863 42.2833116,14.6399732 42.7441412,26.0519243 C41.6507658,28.7048644 40.6441247,31.4923421 39.7864208,34.140006 C39.3124496,35.6040912 38.7745229,37.3636317 38.2252071,39.3465218 C37.7950409,36.4763871 37.4533613,33.5640445 37.4919095,30.6921513 C37.5085555,29.4487778 36.5176841,28.4269959 35.2788759,28.4111681 C35.2683627,28.4102886 35.2587255,28.4102886 35.2482123,28.4102886 C34.0234218,28.4102886 33.0229132,29.3986561 33.0062672,30.6314775 C32.9493206,34.8971098 33.6195388,39.040515 34.2669781,43.0467445 C34.8898866,46.9052469 35.4777512,50.553589 35.2009029,53.4325169 C34.6139145,57.3939009 34.2371907,61.5689618 34.2468277,65.7317124 L33.0378071,65.7317124 C33.0588336,56.9770981 31.3662042,48.1670859 29.6148765,41.4138278 C29.4396561,39.6806676 28.0352645,24.9457265 30.0380338,18.2065376 C30.0704495,18.0983802 30.1037413,17.9884637 30.1379093,17.8803062 C30.5058722,16.6932099 29.8444151,15.4313706 28.6616775,15.0620518 C27.4780636,14.6936125 26.2217332,15.3575069 25.8537706,16.5437239 C25.8152219,16.6685887 25.7775496,16.7925742 25.7398772,16.9183185 C25.0048276,19.3927546 24.6631479,22.6796919 24.543998,26.0598383 C22.1338413,20.2078938 19.3005275,15.0040161 16.7107697,13.3719787 C15.0768395,12.343162 13.767067,12.7573267 13.131893,13.0967484 C11.1440176,14.1572208 10.8049661,16.8725934 10.7313735,19.1201621 C10.6674181,21.0485338 10.176801,23.5036245 9.65639652,26.1029254 C8.23886335,33.1859325 6.474394,42.0012206 11.3753086,49.0683996 C15.4351652,54.9238614 16.2131438,62.2047178 16.3357983,65.7317124 L6.42971274,65.7317124 C2.88412783,65.7317124 0,68.5781052 0,72.076082 C0,75.314656 2.47323604,77.9922175 5.6526102,78.3720882 L13.1529195,113.47672 C13.3745733,114.51433 14.2883477,115.255605 15.3458029,115.255605 L51.9388319,115.255605 C52.9962871,115.255605 53.9100615,114.51433 54.1317153,113.47672 L61.6311485,78.3720882 C64.8113987,77.9922175 67.2846348,75.314656 67.2846348,72.076082 Z M44.2089837,35.0527512 C47.2262791,25.8681441 50.2821229,20.2835164 51.9949024,18.1317946 C52.0281942,18.4421982 52.0553534,18.8167931 52.0702471,19.2678896 C52.1455919,21.5699767 52.6730052,24.2026923 53.2310824,26.99017 C54.5452354,33.5596479 56.0363609,41.0058185 52.2279456,46.4972375 C47.4277826,53.4184476 46.5656983,61.7175688 46.4526812,65.7317124 L38.7350796,65.7317124 C38.7280895,56.8082667 40.6853015,45.7761863 44.2089837,35.0527512 Z M15.0566891,46.4972375 C11.2491499,41.0058185 12.7393993,33.5596479 14.0544284,26.99017 C14.6116295,24.2026923 15.1390428,21.5699767 15.2143877,19.2678896 C15.2292814,18.8167931 15.2564406,18.4421982 15.2897324,18.1317946 C17.0025119,20.2835164 20.0583557,25.8681441 23.075651,35.0527512 C26.5993332,45.7761863 28.5565452,56.8082667 28.5495552,65.7317124 L20.8310776,65.7317124 C20.7189365,61.7166893 19.8577282,53.4184476 15.0566891,46.4972375 Z M50.1253008,110.753433 L17.1584579,110.753433 L11.8799433,86.0433674 L14.0395347,86.0433674 C15.2783431,86.0433674 16.2823559,85.0347753 16.2823559,83.7922813 C16.2823559,82.5489079 15.2783431,81.5411953 14.0395347,81.5411953 L10.9179834,81.5411953 L10.2512696,78.419572 L57.0342412,78.419572 L56.3675276,81.5411953 L52.5521033,81.5411953 C51.3132949,81.5411953 50.3092821,82.5489079 50.3092821,83.7922813 C50.3092821,85.0347753 51.3132949,86.0433674 52.5521033,86.0433674 L55.4055675,86.0433674 L50.1253008,110.753433 Z M60.854922,73.9173999 L6.42971274,73.9173999 C5.35736388,73.9173999 4.48564232,73.0917085 4.48564232,72.076082 C4.48564232,71.0595759 5.35736388,70.2338845 6.42971274,70.2338845 L60.854922,70.2338845 C61.9272709,70.2338845 62.7989924,71.0595759 62.7989924,72.076082 C62.7989924,73.0917085 61.9272709,73.9173999 60.854922,73.9173999 L60.854922,73.9173999 Z" id="Shape" fill="#000000" fill-rule="nonzero"></path>
                    <path d="M31.4513691,85.9641256 L33.9289835,85.9641256 C35.1730698,85.9641256 36.1813602,84.9655636 36.1813602,83.735426 C36.1813602,82.5044176 35.1730698,81.5067265 33.9289835,81.5067265 L31.4513691,81.5067265 C30.2072831,81.5067265 29.1989924,82.5044176 29.1989924,83.735426 C29.1989924,84.9655636 30.2072831,85.9641256 31.4513691,85.9641256 Z" id="Path" fill="#000000" fill-rule="nonzero"></path>
                    <path d="M40.3526448,97.426009 L45.3400504,97.426009 C46.5922152,97.426009 47.6070529,96.4283176 47.6070529,95.1973094 C47.6070529,93.9671716 46.5922152,92.9686099 45.3400504,92.9686099 L40.3526448,92.9686099 C39.1004803,92.9686099 38.0856423,93.9671716 38.0856423,95.1973094 C38.0856423,96.4283176 39.1004803,97.426009 40.3526448,97.426009 Z" id="Path" fill="#000000" fill-rule="nonzero"></path>
                    <path d="M26.2972292,92.9686099 L21.3098237,92.9686099 C20.0576591,92.9686099 19.0428212,93.9671716 19.0428212,95.1973094 C19.0428212,96.4283176 20.0576591,97.426009 21.3098237,97.426009 L26.2972292,97.426009 C27.549394,97.426009 28.5642317,96.4283176 28.5642317,95.1973094 C28.5642317,93.9671716 27.549394,92.9686099 26.2972292,92.9686099 Z" id="Path" fill="#000000" fill-rule="nonzero"></path>
                    <path d="M46.3632649,103.793722 L46.3117981,103.793722 C45.0988903,103.793722 44.115869,104.792284 44.115869,106.022422 C44.115869,107.25343 45.0988903,108.251121 46.3117981,108.251121 L46.3632649,108.251121 C47.5761727,108.251121 48.559194,107.25343 48.559194,106.022422 C48.559194,104.792284 47.5761727,103.793722 46.3632649,103.793722 Z" id="Path" fill="#000000" fill-rule="nonzero"></path>
                    <path d="M39.6582239,103.793722 L30.482834,103.793722 C29.2478031,103.793722 28.2468514,104.791413 28.2468514,106.022422 C28.2468514,107.252559 29.2478031,108.251121 30.482834,108.251121 L39.6582239,108.251121 C40.8932548,108.251121 41.8942065,107.252559 41.8942065,106.022422 C41.8942065,104.791413 40.8932548,103.793722 39.6582239,103.793722 Z" id="Path" fill="#000000" fill-rule="nonzero"></path>
                </g>
            </g>
        </g>
    </g>
</svg>